<mxfile host="app.diagrams.net" modified="2021-10-03T19:14:46.515Z" agent="5.0 (Windows NT 10.0; Win64; x64) AppleWebKit/537.36 (KHTML, like Gecko) Chrome/94.0.4606.61 Safari/537.36" etag="MZuMe0dE4CtIXrNbXWWS" version="15.4.1" type="github">
  <diagram id="C5RBs43oDa-KdzZeNtuy" name="Page-1">
    <mxGraphModel dx="2675" dy="572" grid="1" gridSize="10" guides="1" tooltips="1" connect="1" arrows="1" fold="1" page="1" pageScale="1" pageWidth="827" pageHeight="1169" math="0" shadow="0">
      <root>
        <mxCell id="WIyWlLk6GJQsqaUBKTNV-0" />
        <mxCell id="WIyWlLk6GJQsqaUBKTNV-1" parent="WIyWlLk6GJQsqaUBKTNV-0" />
        <mxCell id="S0y2JLrHrfVJ4vuoPjRd-2" value="Vartotojas" style="swimlane;" vertex="1" parent="WIyWlLk6GJQsqaUBKTNV-1">
          <mxGeometry x="-910" y="55" width="430" height="615" as="geometry" />
        </mxCell>
        <mxCell id="S0y2JLrHrfVJ4vuoPjRd-9" style="edgeStyle=orthogonalEdgeStyle;rounded=0;orthogonalLoop=1;jettySize=auto;html=1;exitX=0.5;exitY=0.5;exitDx=0;exitDy=0;exitPerimeter=0;" edge="1" parent="S0y2JLrHrfVJ4vuoPjRd-2" source="S0y2JLrHrfVJ4vuoPjRd-1" target="S0y2JLrHrfVJ4vuoPjRd-6">
          <mxGeometry relative="1" as="geometry" />
        </mxCell>
        <mxCell id="S0y2JLrHrfVJ4vuoPjRd-87" style="edgeStyle=orthogonalEdgeStyle;rounded=0;orthogonalLoop=1;jettySize=auto;html=1;exitX=0.5;exitY=0.5;exitDx=0;exitDy=0;exitPerimeter=0;entryX=0.5;entryY=0;entryDx=0;entryDy=0;entryPerimeter=0;" edge="1" parent="S0y2JLrHrfVJ4vuoPjRd-2" source="S0y2JLrHrfVJ4vuoPjRd-1" target="S0y2JLrHrfVJ4vuoPjRd-85">
          <mxGeometry relative="1" as="geometry">
            <Array as="points">
              <mxPoint x="295" y="155" />
            </Array>
          </mxGeometry>
        </mxCell>
        <mxCell id="S0y2JLrHrfVJ4vuoPjRd-1" value="Vartotojas" style="shape=umlActor;verticalLabelPosition=bottom;verticalAlign=top;html=1;outlineConnect=0;" vertex="1" parent="S0y2JLrHrfVJ4vuoPjRd-2">
          <mxGeometry x="250" y="125" width="30" height="60" as="geometry" />
        </mxCell>
        <mxCell id="S0y2JLrHrfVJ4vuoPjRd-11" style="edgeStyle=orthogonalEdgeStyle;rounded=0;orthogonalLoop=1;jettySize=auto;html=1;exitX=0.5;exitY=1;exitDx=0;exitDy=0;exitPerimeter=0;entryX=0.5;entryY=0;entryDx=0;entryDy=0;entryPerimeter=0;" edge="1" parent="S0y2JLrHrfVJ4vuoPjRd-2" target="S0y2JLrHrfVJ4vuoPjRd-6">
          <mxGeometry relative="1" as="geometry">
            <mxPoint x="75" y="70" as="sourcePoint" />
          </mxGeometry>
        </mxCell>
        <mxCell id="S0y2JLrHrfVJ4vuoPjRd-5" value="" style="strokeWidth=2;html=1;shape=mxgraph.flowchart.start_2;whiteSpace=wrap;fillColor=#000000;" vertex="1" parent="S0y2JLrHrfVJ4vuoPjRd-2">
          <mxGeometry x="54" y="25" width="42" height="45" as="geometry" />
        </mxCell>
        <mxCell id="S0y2JLrHrfVJ4vuoPjRd-24" value="" style="edgeStyle=orthogonalEdgeStyle;rounded=0;orthogonalLoop=1;jettySize=auto;html=1;entryX=0.5;entryY=0;entryDx=0;entryDy=0;entryPerimeter=0;" edge="1" parent="S0y2JLrHrfVJ4vuoPjRd-2" source="S0y2JLrHrfVJ4vuoPjRd-6" target="S0y2JLrHrfVJ4vuoPjRd-12">
          <mxGeometry relative="1" as="geometry" />
        </mxCell>
        <mxCell id="S0y2JLrHrfVJ4vuoPjRd-6" value="Prašoma įvesti operacija&lt;br&gt;+,-,*,/" style="strokeWidth=2;html=1;shape=mxgraph.flowchart.terminator;whiteSpace=wrap;fillColor=none;" vertex="1" parent="S0y2JLrHrfVJ4vuoPjRd-2">
          <mxGeometry y="120" width="150" height="70" as="geometry" />
        </mxCell>
        <mxCell id="S0y2JLrHrfVJ4vuoPjRd-83" style="edgeStyle=orthogonalEdgeStyle;rounded=0;orthogonalLoop=1;jettySize=auto;html=1;exitX=0.5;exitY=1;exitDx=0;exitDy=0;exitPerimeter=0;" edge="1" parent="S0y2JLrHrfVJ4vuoPjRd-2" source="S0y2JLrHrfVJ4vuoPjRd-12" target="S0y2JLrHrfVJ4vuoPjRd-53">
          <mxGeometry relative="1" as="geometry" />
        </mxCell>
        <mxCell id="S0y2JLrHrfVJ4vuoPjRd-88" style="edgeStyle=orthogonalEdgeStyle;rounded=0;orthogonalLoop=1;jettySize=auto;html=1;exitX=1;exitY=0.5;exitDx=0;exitDy=0;exitPerimeter=0;entryX=0;entryY=0.5;entryDx=0;entryDy=0;entryPerimeter=0;" edge="1" parent="S0y2JLrHrfVJ4vuoPjRd-2" source="S0y2JLrHrfVJ4vuoPjRd-12" target="S0y2JLrHrfVJ4vuoPjRd-85">
          <mxGeometry relative="1" as="geometry" />
        </mxCell>
        <mxCell id="S0y2JLrHrfVJ4vuoPjRd-12" value="Ar tai egzistuojanti&lt;br&gt;operacija?" style="strokeWidth=2;html=1;shape=mxgraph.flowchart.decision;whiteSpace=wrap;fillColor=none;" vertex="1" parent="S0y2JLrHrfVJ4vuoPjRd-2">
          <mxGeometry x="25" y="225" width="100" height="100" as="geometry" />
        </mxCell>
        <mxCell id="S0y2JLrHrfVJ4vuoPjRd-20" value="ne" style="text;html=1;align=center;verticalAlign=middle;resizable=0;points=[];autosize=1;strokeColor=none;fillColor=none;" vertex="1" parent="S0y2JLrHrfVJ4vuoPjRd-2">
          <mxGeometry x="80" y="325" width="30" height="20" as="geometry" />
        </mxCell>
        <mxCell id="S0y2JLrHrfVJ4vuoPjRd-51" style="edgeStyle=orthogonalEdgeStyle;rounded=0;orthogonalLoop=1;jettySize=auto;html=1;exitX=0.5;exitY=0;exitDx=0;exitDy=0;exitPerimeter=0;entryX=0.89;entryY=0.89;entryDx=0;entryDy=0;entryPerimeter=0;" edge="1" parent="S0y2JLrHrfVJ4vuoPjRd-2" source="S0y2JLrHrfVJ4vuoPjRd-25" target="S0y2JLrHrfVJ4vuoPjRd-6">
          <mxGeometry relative="1" as="geometry">
            <Array as="points">
              <mxPoint x="171" y="185" />
              <mxPoint x="134" y="185" />
            </Array>
          </mxGeometry>
        </mxCell>
        <mxCell id="S0y2JLrHrfVJ4vuoPjRd-25" value="Ar norima tęsti darbą?" style="strokeWidth=2;html=1;shape=mxgraph.flowchart.terminator;whiteSpace=wrap;fillColor=none;" vertex="1" parent="S0y2JLrHrfVJ4vuoPjRd-2">
          <mxGeometry x="96" y="520" width="150" height="70" as="geometry" />
        </mxCell>
        <mxCell id="S0y2JLrHrfVJ4vuoPjRd-50" value="taip" style="text;html=1;align=center;verticalAlign=middle;resizable=0;points=[];autosize=1;strokeColor=none;fillColor=none;" vertex="1" parent="S0y2JLrHrfVJ4vuoPjRd-2">
          <mxGeometry x="180" y="485" width="30" height="20" as="geometry" />
        </mxCell>
        <mxCell id="S0y2JLrHrfVJ4vuoPjRd-48" value="ne" style="text;html=1;align=center;verticalAlign=middle;resizable=0;points=[];autosize=1;strokeColor=none;fillColor=none;" vertex="1" parent="S0y2JLrHrfVJ4vuoPjRd-2">
          <mxGeometry x="260" y="530" width="30" height="20" as="geometry" />
        </mxCell>
        <mxCell id="S0y2JLrHrfVJ4vuoPjRd-84" style="edgeStyle=orthogonalEdgeStyle;rounded=0;orthogonalLoop=1;jettySize=auto;html=1;exitX=0.5;exitY=1;exitDx=0;exitDy=0;exitPerimeter=0;entryX=0;entryY=0.5;entryDx=0;entryDy=0;entryPerimeter=0;" edge="1" parent="S0y2JLrHrfVJ4vuoPjRd-2" source="S0y2JLrHrfVJ4vuoPjRd-53" target="S0y2JLrHrfVJ4vuoPjRd-25">
          <mxGeometry relative="1" as="geometry" />
        </mxCell>
        <mxCell id="S0y2JLrHrfVJ4vuoPjRd-53" value="Išvedama kad operacija negalima" style="strokeWidth=2;html=1;shape=mxgraph.flowchart.terminator;whiteSpace=wrap;fillColor=none;" vertex="1" parent="S0y2JLrHrfVJ4vuoPjRd-2">
          <mxGeometry y="355" width="150" height="70" as="geometry" />
        </mxCell>
        <mxCell id="S0y2JLrHrfVJ4vuoPjRd-85" value="Prašoma įvesti 2 skaičius" style="strokeWidth=2;html=1;shape=mxgraph.flowchart.terminator;whiteSpace=wrap;fillColor=none;" vertex="1" parent="S0y2JLrHrfVJ4vuoPjRd-2">
          <mxGeometry x="220" y="240" width="150" height="70" as="geometry" />
        </mxCell>
        <mxCell id="S0y2JLrHrfVJ4vuoPjRd-41" value="taip" style="text;html=1;align=center;verticalAlign=middle;resizable=0;points=[];autosize=1;strokeColor=none;fillColor=none;" vertex="1" parent="WIyWlLk6GJQsqaUBKTNV-1">
          <mxGeometry x="-775" y="310" width="30" height="20" as="geometry" />
        </mxCell>
        <mxCell id="S0y2JLrHrfVJ4vuoPjRd-95" value="ne" style="text;html=1;align=center;verticalAlign=middle;resizable=0;points=[];autosize=1;strokeColor=none;fillColor=none;" vertex="1" parent="WIyWlLk6GJQsqaUBKTNV-1">
          <mxGeometry x="-322" y="340" width="30" height="20" as="geometry" />
        </mxCell>
        <mxCell id="S0y2JLrHrfVJ4vuoPjRd-99" value="/" style="text;html=1;align=center;verticalAlign=middle;resizable=0;points=[];autosize=1;strokeColor=none;fillColor=none;" vertex="1" parent="WIyWlLk6GJQsqaUBKTNV-1">
          <mxGeometry x="-410" y="180" width="20" height="20" as="geometry" />
        </mxCell>
        <mxCell id="S0y2JLrHrfVJ4vuoPjRd-100" value="*" style="text;html=1;align=center;verticalAlign=middle;resizable=0;points=[];autosize=1;strokeColor=none;fillColor=none;" vertex="1" parent="WIyWlLk6GJQsqaUBKTNV-1">
          <mxGeometry x="-350" y="180" width="20" height="20" as="geometry" />
        </mxCell>
        <mxCell id="S0y2JLrHrfVJ4vuoPjRd-107" style="edgeStyle=orthogonalEdgeStyle;rounded=0;orthogonalLoop=1;jettySize=auto;html=1;exitX=1;exitY=0.5;exitDx=0;exitDy=0;" edge="1" parent="WIyWlLk6GJQsqaUBKTNV-1" source="S0y2JLrHrfVJ4vuoPjRd-43">
          <mxGeometry relative="1" as="geometry">
            <mxPoint x="-110" y="292.7058823529412" as="targetPoint" />
          </mxGeometry>
        </mxCell>
        <mxCell id="S0y2JLrHrfVJ4vuoPjRd-108" style="edgeStyle=orthogonalEdgeStyle;rounded=0;orthogonalLoop=1;jettySize=auto;html=1;exitX=1;exitY=0.5;exitDx=0;exitDy=0;" edge="1" parent="WIyWlLk6GJQsqaUBKTNV-1" source="S0y2JLrHrfVJ4vuoPjRd-42">
          <mxGeometry relative="1" as="geometry">
            <mxPoint x="-110" y="222.11764705882354" as="targetPoint" />
          </mxGeometry>
        </mxCell>
        <mxCell id="S0y2JLrHrfVJ4vuoPjRd-109" style="edgeStyle=orthogonalEdgeStyle;rounded=0;orthogonalLoop=1;jettySize=auto;html=1;exitX=1;exitY=0.5;exitDx=0;exitDy=0;" edge="1" parent="WIyWlLk6GJQsqaUBKTNV-1" source="S0y2JLrHrfVJ4vuoPjRd-44">
          <mxGeometry relative="1" as="geometry">
            <mxPoint x="-110" y="362.11764705882354" as="targetPoint" />
          </mxGeometry>
        </mxCell>
        <mxCell id="S0y2JLrHrfVJ4vuoPjRd-3" value="Sistema" style="swimlane;startSize=23;" vertex="1" parent="WIyWlLk6GJQsqaUBKTNV-1">
          <mxGeometry x="-480" y="55" width="410" height="610" as="geometry" />
        </mxCell>
        <mxCell id="S0y2JLrHrfVJ4vuoPjRd-37" value="" style="edgeStyle=orthogonalEdgeStyle;rounded=0;orthogonalLoop=1;jettySize=auto;html=1;" edge="1" parent="S0y2JLrHrfVJ4vuoPjRd-3" source="S0y2JLrHrfVJ4vuoPjRd-22" target="S0y2JLrHrfVJ4vuoPjRd-36">
          <mxGeometry relative="1" as="geometry" />
        </mxCell>
        <mxCell id="S0y2JLrHrfVJ4vuoPjRd-45" style="edgeStyle=orthogonalEdgeStyle;rounded=0;orthogonalLoop=1;jettySize=auto;html=1;exitX=1;exitY=0.75;exitDx=0;exitDy=0;entryX=0;entryY=0.5;entryDx=0;entryDy=0;" edge="1" parent="S0y2JLrHrfVJ4vuoPjRd-3" source="S0y2JLrHrfVJ4vuoPjRd-22" target="S0y2JLrHrfVJ4vuoPjRd-42">
          <mxGeometry relative="1" as="geometry">
            <Array as="points">
              <mxPoint x="192" y="110" />
              <mxPoint x="192" y="165" />
            </Array>
          </mxGeometry>
        </mxCell>
        <mxCell id="S0y2JLrHrfVJ4vuoPjRd-46" style="edgeStyle=orthogonalEdgeStyle;rounded=0;orthogonalLoop=1;jettySize=auto;html=1;exitX=1;exitY=1;exitDx=0;exitDy=0;entryX=0;entryY=0.5;entryDx=0;entryDy=0;" edge="1" parent="S0y2JLrHrfVJ4vuoPjRd-3" source="S0y2JLrHrfVJ4vuoPjRd-22" target="S0y2JLrHrfVJ4vuoPjRd-43">
          <mxGeometry relative="1" as="geometry" />
        </mxCell>
        <mxCell id="S0y2JLrHrfVJ4vuoPjRd-93" style="edgeStyle=orthogonalEdgeStyle;rounded=0;orthogonalLoop=1;jettySize=auto;html=1;exitX=0.5;exitY=1;exitDx=0;exitDy=0;entryX=0.5;entryY=0;entryDx=0;entryDy=0;entryPerimeter=0;" edge="1" parent="S0y2JLrHrfVJ4vuoPjRd-3" source="S0y2JLrHrfVJ4vuoPjRd-22" target="S0y2JLrHrfVJ4vuoPjRd-90">
          <mxGeometry relative="1" as="geometry" />
        </mxCell>
        <mxCell id="S0y2JLrHrfVJ4vuoPjRd-22" value="Kokia tai operacija?" style="whiteSpace=wrap;html=1;strokeWidth=2;fillColor=none;" vertex="1" parent="S0y2JLrHrfVJ4vuoPjRd-3">
          <mxGeometry x="30" y="65" width="120" height="60" as="geometry" />
        </mxCell>
        <mxCell id="S0y2JLrHrfVJ4vuoPjRd-27" value="" style="ellipse;shape=doubleEllipse;whiteSpace=wrap;html=1;aspect=fixed;fillColor=default;" vertex="1" parent="S0y2JLrHrfVJ4vuoPjRd-3">
          <mxGeometry x="170" y="512.5" width="80" height="80" as="geometry" />
        </mxCell>
        <mxCell id="S0y2JLrHrfVJ4vuoPjRd-36" value="Atliekama sudėtis ir išvedamas rezultatas į ekraną" style="whiteSpace=wrap;html=1;strokeWidth=2;fillColor=none;" vertex="1" parent="S0y2JLrHrfVJ4vuoPjRd-3">
          <mxGeometry x="233" y="65" width="120" height="60" as="geometry" />
        </mxCell>
        <mxCell id="S0y2JLrHrfVJ4vuoPjRd-38" value="+" style="text;html=1;align=center;verticalAlign=middle;resizable=0;points=[];autosize=1;strokeColor=none;fillColor=none;" vertex="1" parent="S0y2JLrHrfVJ4vuoPjRd-3">
          <mxGeometry x="150" y="75" width="20" height="20" as="geometry" />
        </mxCell>
        <mxCell id="S0y2JLrHrfVJ4vuoPjRd-42" value="Atliekama atimtis ir išvedamas rezultatas į ekraną" style="whiteSpace=wrap;html=1;strokeWidth=2;fillColor=none;" vertex="1" parent="S0y2JLrHrfVJ4vuoPjRd-3">
          <mxGeometry x="233" y="135" width="120" height="60" as="geometry" />
        </mxCell>
        <mxCell id="S0y2JLrHrfVJ4vuoPjRd-43" value="Atliekama daugyba ir išvedamas rezultatas į ekraną" style="whiteSpace=wrap;html=1;strokeWidth=2;fillColor=none;" vertex="1" parent="S0y2JLrHrfVJ4vuoPjRd-3">
          <mxGeometry x="233" y="205" width="120" height="60" as="geometry" />
        </mxCell>
        <mxCell id="S0y2JLrHrfVJ4vuoPjRd-44" value="Atliekama dalyba ir išvedamas rezultatas į ekraną" style="whiteSpace=wrap;html=1;strokeWidth=2;fillColor=none;" vertex="1" parent="S0y2JLrHrfVJ4vuoPjRd-3">
          <mxGeometry x="233" y="275" width="120" height="60" as="geometry" />
        </mxCell>
        <mxCell id="S0y2JLrHrfVJ4vuoPjRd-94" style="edgeStyle=orthogonalEdgeStyle;rounded=0;orthogonalLoop=1;jettySize=auto;html=1;exitX=1;exitY=0.5;exitDx=0;exitDy=0;exitPerimeter=0;entryX=0;entryY=0.5;entryDx=0;entryDy=0;" edge="1" parent="S0y2JLrHrfVJ4vuoPjRd-3" source="S0y2JLrHrfVJ4vuoPjRd-90" target="S0y2JLrHrfVJ4vuoPjRd-44">
          <mxGeometry relative="1" as="geometry" />
        </mxCell>
        <mxCell id="S0y2JLrHrfVJ4vuoPjRd-97" style="edgeStyle=orthogonalEdgeStyle;rounded=0;orthogonalLoop=1;jettySize=auto;html=1;exitX=0.5;exitY=1;exitDx=0;exitDy=0;exitPerimeter=0;entryX=0.5;entryY=0;entryDx=0;entryDy=0;entryPerimeter=0;" edge="1" parent="S0y2JLrHrfVJ4vuoPjRd-3" source="S0y2JLrHrfVJ4vuoPjRd-90" target="S0y2JLrHrfVJ4vuoPjRd-96">
          <mxGeometry relative="1" as="geometry" />
        </mxCell>
        <mxCell id="S0y2JLrHrfVJ4vuoPjRd-90" value="Ar 2 skaičius&lt;br&gt;lygus 0?" style="strokeWidth=2;html=1;shape=mxgraph.flowchart.decision;whiteSpace=wrap;fillColor=none;" vertex="1" parent="S0y2JLrHrfVJ4vuoPjRd-3">
          <mxGeometry x="40" y="255" width="100" height="100" as="geometry" />
        </mxCell>
        <mxCell id="S0y2JLrHrfVJ4vuoPjRd-96" value="Išvedama kad dalyba iš 0 negalima" style="strokeWidth=2;html=1;shape=mxgraph.flowchart.terminator;whiteSpace=wrap;fillColor=none;" vertex="1" parent="S0y2JLrHrfVJ4vuoPjRd-3">
          <mxGeometry x="15" y="380" width="150" height="70" as="geometry" />
        </mxCell>
        <mxCell id="S0y2JLrHrfVJ4vuoPjRd-102" value="-" style="text;html=1;align=center;verticalAlign=middle;resizable=0;points=[];autosize=1;strokeColor=none;fillColor=none;" vertex="1" parent="S0y2JLrHrfVJ4vuoPjRd-3">
          <mxGeometry x="150" y="95" width="20" height="20" as="geometry" />
        </mxCell>
        <mxCell id="S0y2JLrHrfVJ4vuoPjRd-103" value="taip" style="text;html=1;align=center;verticalAlign=middle;resizable=0;points=[];autosize=1;strokeColor=none;fillColor=none;" vertex="1" parent="S0y2JLrHrfVJ4vuoPjRd-3">
          <mxGeometry x="95" y="355" width="30" height="20" as="geometry" />
        </mxCell>
        <mxCell id="S0y2JLrHrfVJ4vuoPjRd-89" style="edgeStyle=orthogonalEdgeStyle;rounded=0;orthogonalLoop=1;jettySize=auto;html=1;exitX=1;exitY=0.5;exitDx=0;exitDy=0;exitPerimeter=0;entryX=0;entryY=0.5;entryDx=0;entryDy=0;" edge="1" parent="WIyWlLk6GJQsqaUBKTNV-1" source="S0y2JLrHrfVJ4vuoPjRd-85" target="S0y2JLrHrfVJ4vuoPjRd-22">
          <mxGeometry relative="1" as="geometry" />
        </mxCell>
        <mxCell id="S0y2JLrHrfVJ4vuoPjRd-35" style="edgeStyle=orthogonalEdgeStyle;rounded=0;orthogonalLoop=1;jettySize=auto;html=1;exitX=1;exitY=0.5;exitDx=0;exitDy=0;exitPerimeter=0;entryX=0;entryY=0.5;entryDx=0;entryDy=0;" edge="1" parent="WIyWlLk6GJQsqaUBKTNV-1" source="S0y2JLrHrfVJ4vuoPjRd-25" target="S0y2JLrHrfVJ4vuoPjRd-27">
          <mxGeometry relative="1" as="geometry" />
        </mxCell>
        <mxCell id="S0y2JLrHrfVJ4vuoPjRd-105" style="edgeStyle=orthogonalEdgeStyle;rounded=0;orthogonalLoop=1;jettySize=auto;html=1;exitX=1;exitY=0.5;exitDx=0;exitDy=0;entryX=0.89;entryY=0.11;entryDx=0;entryDy=0;entryPerimeter=0;" edge="1" parent="WIyWlLk6GJQsqaUBKTNV-1" source="S0y2JLrHrfVJ4vuoPjRd-36" target="S0y2JLrHrfVJ4vuoPjRd-25">
          <mxGeometry relative="1" as="geometry">
            <mxPoint x="-681" y="530" as="targetPoint" />
            <Array as="points">
              <mxPoint x="-107" y="152" />
              <mxPoint x="-107" y="530" />
              <mxPoint x="-681" y="530" />
            </Array>
          </mxGeometry>
        </mxCell>
        <mxCell id="S0y2JLrHrfVJ4vuoPjRd-98" style="edgeStyle=orthogonalEdgeStyle;rounded=0;orthogonalLoop=1;jettySize=auto;html=1;exitX=0;exitY=0.5;exitDx=0;exitDy=0;exitPerimeter=0;entryX=0.89;entryY=0.11;entryDx=0;entryDy=0;entryPerimeter=0;" edge="1" parent="WIyWlLk6GJQsqaUBKTNV-1" source="S0y2JLrHrfVJ4vuoPjRd-96" target="S0y2JLrHrfVJ4vuoPjRd-25">
          <mxGeometry relative="1" as="geometry">
            <Array as="points">
              <mxPoint x="-681" y="472" />
            </Array>
          </mxGeometry>
        </mxCell>
      </root>
    </mxGraphModel>
  </diagram>
</mxfile>
